<mxfile host="app.diagrams.net" agent="Mozilla/5.0 (Windows NT 10.0; Win64; x64) AppleWebKit/537.36 (KHTML, like Gecko) Chrome/138.0.0.0 Safari/537.36 Edg/138.0.0.0" version="26.2.14">
  <diagram name="Page-1" id="4ggl11QX9mAoy8aVGEDT">
    <mxGraphModel dx="1914" dy="955" grid="1" gridSize="10" guides="1" tooltips="1" connect="1" arrows="1" fold="1" page="1" pageScale="1" pageWidth="850" pageHeight="1100" math="0" shadow="0">
      <root>
        <mxCell id="0" />
        <mxCell id="1" parent="0" />
        <mxCell id="alkJ_0k8CvMr2VEUqcdf-1" value="Sales_Fact" style="swimlane;whiteSpace=wrap;html=1;" vertex="1" parent="1">
          <mxGeometry x="325" y="260" width="200" height="200" as="geometry" />
        </mxCell>
        <mxCell id="alkJ_0k8CvMr2VEUqcdf-2" value="Rating_Fact" style="swimlane;whiteSpace=wrap;html=1;" vertex="1" parent="1">
          <mxGeometry x="325" y="600" width="200" height="200" as="geometry" />
        </mxCell>
        <mxCell id="alkJ_0k8CvMr2VEUqcdf-3" value="Product_Dim" style="swimlane;whiteSpace=wrap;html=1;" vertex="1" parent="1">
          <mxGeometry x="50" y="130" width="200" height="200" as="geometry" />
        </mxCell>
        <mxCell id="alkJ_0k8CvMr2VEUqcdf-5" value="Product_SK&lt;div&gt;&lt;span style=&quot;background-color: transparent; color: light-dark(rgb(0, 0, 0), rgb(255, 255, 255));&quot;&gt;Product_name&lt;/span&gt;&lt;/div&gt;&lt;div&gt;Category&lt;/div&gt;&lt;div&gt;Discount&lt;/div&gt;&lt;div&gt;Actual_price&lt;/div&gt;&lt;div&gt;Discounted_price&lt;/div&gt;&lt;div&gt;About_product&lt;/div&gt;&lt;div&gt;Img_link&lt;/div&gt;&lt;div&gt;Product_link&lt;/div&gt;" style="text;html=1;align=left;verticalAlign=middle;resizable=0;points=[];autosize=1;strokeColor=none;fillColor=none;" vertex="1" parent="alkJ_0k8CvMr2VEUqcdf-3">
          <mxGeometry x="10" y="40" width="120" height="140" as="geometry" />
        </mxCell>
        <mxCell id="alkJ_0k8CvMr2VEUqcdf-6" value="Date_Dim" style="swimlane;whiteSpace=wrap;html=1;" vertex="1" parent="1">
          <mxGeometry x="590" y="130" width="200" height="200" as="geometry" />
        </mxCell>
        <mxCell id="alkJ_0k8CvMr2VEUqcdf-7" value="Date_SK&lt;div&gt;Date&lt;/div&gt;&lt;div&gt;Month&lt;/div&gt;&lt;div&gt;Year&lt;/div&gt;" style="text;html=1;align=left;verticalAlign=middle;resizable=0;points=[];autosize=1;strokeColor=none;fillColor=none;" vertex="1" parent="alkJ_0k8CvMr2VEUqcdf-6">
          <mxGeometry x="10" y="30" width="70" height="70" as="geometry" />
        </mxCell>
        <mxCell id="alkJ_0k8CvMr2VEUqcdf-8" value="Customer_Dim" style="swimlane;whiteSpace=wrap;html=1;" vertex="1" parent="1">
          <mxGeometry x="40" y="430" width="200" height="200" as="geometry" />
        </mxCell>
        <mxCell id="alkJ_0k8CvMr2VEUqcdf-9" value="Customer_SK&lt;div&gt;&lt;span style=&quot;background-color: transparent; color: light-dark(rgb(0, 0, 0), rgb(255, 255, 255));&quot;&gt;Customer_name&lt;/span&gt;&lt;/div&gt;&lt;div&gt;First_name&lt;/div&gt;&lt;div&gt;Last_name&lt;/div&gt;&lt;div&gt;City&lt;/div&gt;&lt;div&gt;Phone1&lt;/div&gt;&lt;div&gt;Phone2&lt;/div&gt;&lt;div&gt;Email&lt;/div&gt;&lt;div&gt;Address&lt;/div&gt;" style="text;html=1;align=left;verticalAlign=middle;resizable=0;points=[];autosize=1;strokeColor=none;fillColor=none;" vertex="1" parent="alkJ_0k8CvMr2VEUqcdf-8">
          <mxGeometry x="10" y="40" width="110" height="140" as="geometry" />
        </mxCell>
        <mxCell id="alkJ_0k8CvMr2VEUqcdf-10" value="Review_Dim" style="swimlane;whiteSpace=wrap;html=1;" vertex="1" parent="1">
          <mxGeometry x="590" y="430" width="200" height="200" as="geometry" />
        </mxCell>
        <mxCell id="alkJ_0k8CvMr2VEUqcdf-11" value="Review_SK&lt;div&gt;Review_title&lt;/div&gt;&lt;div&gt;Review_content&lt;/div&gt;" style="text;html=1;align=left;verticalAlign=middle;resizable=0;points=[];autosize=1;strokeColor=none;fillColor=none;" vertex="1" parent="alkJ_0k8CvMr2VEUqcdf-10">
          <mxGeometry x="10" y="40" width="110" height="60" as="geometry" />
        </mxCell>
      </root>
    </mxGraphModel>
  </diagram>
</mxfile>
